<?xml version="1.0" encoding="UTF-8" standalone="no"?>
<!-- Created with Inkscape (http://www.inkscape.org/) -->

<svg
   xmlns:dc="http://purl.org/dc/elements/1.1/"
   xmlns:cc="http://creativecommons.org/ns#"
   xmlns:rdf="http://www.w3.org/1999/02/22-rdf-syntax-ns#"
   xmlns:svg="http://www.w3.org/2000/svg"
   xmlns="http://www.w3.org/2000/svg"
   xmlns:xlink="http://www.w3.org/1999/xlink"
   xmlns:sodipodi="http://sodipodi.sourceforge.net/DTD/sodipodi-0.dtd"
   xmlns:inkscape="http://www.inkscape.org/namespaces/inkscape"
   width="210mm"
   height="297mm"
   viewBox="0 0 744.09448819 1052.3622047"
   id="svg2"
   version="1.1"
   inkscape:version="0.91 r13725"
   sodipodi:docname="TorRLogo4.svg">
  <defs
     id="defs4" />
  <sodipodi:namedview
     id="base"
     pagecolor="#ffffff"
     bordercolor="#666666"
     borderopacity="1.0"
     inkscape:pageopacity="0.0"
     inkscape:pageshadow="2"
     inkscape:zoom="0.6889263"
     inkscape:cx="372.04724"
     inkscape:cy="526.1811"
     inkscape:document-units="px"
     inkscape:current-layer="layer2"
     showgrid="false"
     inkscape:window-width="1280"
     inkscape:window-height="927"
     inkscape:window-x="0"
     inkscape:window-y="1"
     inkscape:window-maximized="1"
     inkscape:snap-grids="false">
    <inkscape:grid
       type="xygrid"
       id="grid4197" />
  </sodipodi:namedview>
  <metadata
     id="metadata7">
    <rdf:RDF>
      <cc:Work
         rdf:about="">
        <dc:format>image/svg+xml</dc:format>
        <dc:type
           rdf:resource="http://purl.org/dc/dcmitype/StillImage" />
        <dc:title />
      </cc:Work>
    </rdf:RDF>
  </metadata>
  <g
     inkscape:label="Scan"
     inkscape:groupmode="layer"
     id="layer1"
     style="display:none"
     sodipodi:insensitive="true">
    <image
       sodipodi:absref="/Users/hamiltonsmith/Documents/Art/TrumporRump/TorRLogo2Scan.jpg"
       xlink:href="TorRLogo2Scan.jpg"
       y="-851.85535"
       x="142.90248"
       id="image4214"
       preserveAspectRatio="none"
       height="1063.2156"
       width="812.42383"
       transform="matrix(0,1,-1,0,0,0)" />
  </g>
  <g
     inkscape:groupmode="layer"
     id="layer2"
     inkscape:label="LogoArt">
    <ellipse
       style="opacity:0.99299999;fill:#00003f;fill-opacity:1;stroke:#d40000;stroke-width:8;stroke-miterlimit:4;stroke-dasharray:none;stroke-opacity:1"
       id="path5839"
       cx="340.12811"
       cy="600.22394"
       rx="527.63464"
       ry="210.03638" />
    <path
       style="opacity:1;fill:#ffcc00;fill-rule:evenodd;stroke:none;stroke-width:1px;stroke-linecap:butt;stroke-linejoin:miter;stroke-opacity:1"
       d="m 14.733707,562.23211 c 0,0 7.406537,-53.49449 22.01543,-75.11144 10.15464,-15.02596 26.55963,-25.47147 42.73582,-33.67066 14.386218,-7.29191 30.542353,-11.67905 46.620903,-12.95026 19.05647,-1.50664 39.0784,-0.22653 56.9811,6.47514 22.09148,8.26969 36.8613,30.25506 58.27613,40.14578 16.63593,7.68351 34.77232,14.42532 53.09602,14.24526 17.07628,-0.16779 33.46939,-7.62484 49.21097,-14.24526 10.51281,-4.42138 29.78557,-16.83534 29.78557,-16.83534 0,0 -21.43241,31.87354 -34.96568,45.32588 -8.08271,8.03437 -17.91707,14.10288 -27.19552,20.7204 -10.13727,7.23005 -19.86256,15.31733 -31.08061,20.7204 -10.20857,4.91687 -21.09591,9.28384 -32.37562,10.36021 -10.82015,1.03251 -21.79561,-1.39414 -32.37563,-3.88508 -12.49305,-2.94132 -23.93365,-9.37659 -36.2607,-12.95025 -16.99876,-4.92801 -34.20061,-11.91699 -51.801,-16.03209 -14.90034,-3.48381 -29.726565,-7.11769 -45.325875,-7.27836 -15.076968,-0.1553 -30.959248,2.84541 -44.030858,10.3602 -9.794768,5.63095 -23.31045,24.60547 -23.31045,24.60547 z"
       id="path4218"
       inkscape:connector-curvature="0"
       sodipodi:nodetypes="cssssssscsassssassc" />
    <path
       style="fill:#f4e3d7;fill-rule:evenodd;stroke:none;stroke-width:1px;stroke-linecap:butt;stroke-linejoin:miter;stroke-opacity:1"
       d="m 24.029108,518.28737 c 0,0 6.919704,-23.06457 13.466459,-32.96616 5.29841,-8.01354 12.33776,-15.07324 20.28072,-20.4769 3.33932,-2.27177 11.13834,-4.76923 11.13834,-4.76923 l 25.823498,-2.62613 29.324985,3.93918 28.88732,6.1276 24.07275,9.62911 26.26119,11.37985 21.44663,11.37985 23.19739,10.50447 25.8235,9.6291 20.13358,0.87538 17.94514,-3.0638 16.1944,-3.93919 18.84129,-7.27913 c 0,0 -8.73397,9.97071 -16.27168,16.08564 -4.87327,3.95341 -13.08482,10.16046 -20.49399,13.72397 -6.764,3.25321 -21.4674,6.79452 -21.4674,6.79452 0,0 -13.97754,2.55335 -21.00895,2.18843 -8.48691,-0.44046 -24.94813,-5.25224 -24.94813,-5.25224 l -28.88731,-8.75373 -28.01194,-13.13059 -27.57424,-11.81753 -24.51044,-8.31604 -31.95112,-4.37687 -23.197373,-2.18844 c 0,0 -17.996739,-0.38933 -26.26119,2.62612 -6.310589,2.30254 -16.63208,11.37985 -16.63208,11.37985 z"
       id="path4220"
       inkscape:connector-curvature="0"
       sodipodi:nodetypes="caacccccccccccccsscscccccccscc" />
    <path
       style="fill:#f4e3d7;fill-opacity:1;fill-rule:evenodd;stroke:none;stroke-width:2;stroke-linecap:butt;stroke-linejoin:miter;stroke-miterlimit:4;stroke-dasharray:none;stroke-opacity:1"
       d="m 439.60144,468.25917 3.42775,-5.71292 c 0,0 8.56057,-0.77906 12.85407,-0.85694 6.28606,-0.11402 12.58984,0.019 18.85263,0.57129 7.18965,0.63405 14.30452,1.95314 21.42346,3.14211 4.58645,0.76601 13.71101,2.57082 13.71101,2.57082 l 10.28326,3.99904 -10.56891,24.27991 -27.42202,7.99809 -9.9976,15.71054 -12.56843,-1.99953 -7.71245,-24.56556 z"
       id="path4245"
       inkscape:connector-curvature="0"
       sodipodi:nodetypes="ccssscccccccc" />
    <path
       style="fill:#1a1a1a;fill-rule:evenodd;stroke:none;stroke-width:1px;stroke-linecap:butt;stroke-linejoin:miter;stroke-opacity:1"
       d="m 476.27638,707.23955 15.63892,23.10295 31.63328,-0.35543 -12.79548,-27.36812 -17.06065,2.48802 z"
       id="path4201"
       inkscape:connector-curvature="0"
       sodipodi:nodetypes="cccccc" />
    <path
       style="fill:#1a1a1a;fill-opacity:1;fill-rule:evenodd;stroke:none;stroke-width:1px;stroke-linecap:butt;stroke-linejoin:miter;stroke-opacity:1"
       d="m 321.18796,699.53305 c 0,0 -6.527,9.52711 -9.35674,14.07815 -2.74054,4.40757 -7.35936,12.78701 -7.35936,12.78701 l 20.89513,5.37304 13.73108,-27.46217 z"
       id="path4203"
       inkscape:connector-curvature="0"
       sodipodi:nodetypes="cscccc" />
    <path
       style="fill:#535d6c;fill-rule:evenodd;stroke:none;stroke-width:1px;stroke-linecap:butt;stroke-linejoin:miter;stroke-opacity:1"
       d="m 365.4625,544.34431 -10.16526,43.16218 -9.74563,37.7913 -9.81846,24.87343 -11.78215,36.65557 -12.43671,23.56429 19.63691,1.30913 8.50933,7.85477 10.47302,-21.60061 12.43671,-22.25517 11.12759,-15.70953 24.87342,-22.90973 26.18255,-13.09128 13.09128,-9.16389 7.2002,20.94604 15.70953,28.80081 11.78215,22.25517 -0.65456,15.05497 7.85476,12.43671 18.98235,1.96369 13.09128,-1.96369 3.92738,-2.61826 -7.85477,-30.7645 -4.58194,-20.94604 0,-22.25517 3.27282,-24.21886 0,-13.09127 -0.65457,-36.00101 z"
       id="path4152"
       inkscape:connector-curvature="0"
       sodipodi:nodetypes="ccccccccccccccccccccccccccccc" />
    <rect
       style="opacity:1;fill:#000000;fill-opacity:1;stroke:none;stroke-width:2;stroke-miterlimit:4;stroke-dasharray:none;stroke-opacity:1"
       id="rect4247"
       width="34.269604"
       height="76.54789"
       x="436.28339"
       y="509.3071" />
    <path
       style="fill:#f4e3d7;fill-opacity:1;fill-rule:evenodd;stroke:none;stroke-width:2;stroke-linecap:butt;stroke-linejoin:miter;stroke-miterlimit:4;stroke-dasharray:none;stroke-opacity:1"
       d="m 369.72068,584.40438 c -5.54154,-10.59372 -5.99066,-22.60296 -5.70848,-34.55519 0.29407,-12.45597 3.53201,-24.57885 7.76219,-36.2982 3.17411,-8.79355 5.51112,-18.32692 11.29548,-25.67151 5.59114,-7.09928 13.57555,-12.20552 21.56406,-16.42976 9.56864,-5.0598 30.80582,-10.26861 30.80582,-10.26861 0,0 18.46527,-0.70606 25.67153,4.10744 4.34468,2.90208 6.70839,8.3463 8.21487,13.34919 2.96245,9.83795 1.02687,30.80582 1.02687,30.80582 l -10.26861,39.0207 -7.18802,23.61779 c 0,0 -1.84924,11.10193 -5.13431,15.40291 -5.99288,7.8462 -15.30743,13.22141 -24.64465,16.42978 -8.76412,3.01143 -18.77967,4.47346 -27.72525,2.05372 -6.41545,-1.73535 -11.43385,-6.91252 -16.42976,-11.29547 -3.46166,-3.03693 -7.10729,-6.18816 -9.24174,-10.26861 z"
       id="path4222"
       inkscape:connector-curvature="0"
       sodipodi:nodetypes="ssssscsscccsssss" />
    <path
       style="opacity:1;fill:#f4e3d7;fill-opacity:1;fill-rule:evenodd;stroke:none;stroke-width:2;stroke-linecap:butt;stroke-linejoin:miter;stroke-miterlimit:4;stroke-dasharray:none;stroke-opacity:1"
       d="m 454.74068,584.51711 c -0.22177,-6.81078 2.57081,-20.28088 2.57081,-20.28088 0,0 3.65395,-15.07579 5.71292,-22.85167 1.92725,-7.27841 4.48646,-14.96893 6.28421,-22.2804 1.45571,-5.92041 2.50366,-11.97426 4.57034,-17.71005 2.35351,-6.53182 4.79414,-13.22121 8.85502,-18.85264 3.15135,-4.37015 6.95154,-8.61589 11.7115,-11.14019 4.73535,-2.51126 10.38681,-2.80473 15.71052,-3.42775 5.20221,-0.60881 10.61943,-1.51617 15.71053,-0.28565 4.30633,1.04085 8.65496,3.07711 11.7115,6.28422 4.58373,4.80952 8.57737,11.2159 10.7189,17.50526 2.48007,7.28355 2.92941,11.88188 3.68352,19.53904 0.59732,6.06519 -0.70479,18.15756 -1.84895,24.14373 -1.26157,6.60044 -3.11358,10.81525 -5.96867,16.89851 -2.78987,5.94427 -5.80278,12.06146 -9.12573,17.72499 -3.15669,5.38019 -7.29676,9.91622 -10.88444,15.01913 -3.30986,4.70773 -6.35722,9.83481 -10.85455,13.42536 -4.72546,3.77266 -10.40322,6.5821 -16.28182,7.99808 -5.73996,1.38257 -11.84295,0.94566 -17.71006,0.28565 -4.77332,-0.53696 -9.86649,-0.97528 -13.99666,-3.42775 -3.76689,-2.23676 -6.88961,-5.79665 -8.85502,-9.71197 -1.34878,-2.68692 -1.61604,-5.85017 -1.71387,-8.85502 z"
       id="path4243"
       inkscape:connector-curvature="0"
       sodipodi:nodetypes="scssssssssssssssssssss" />
    <path
       style="fill:#ff0000;fill-opacity:1;fill-rule:evenodd;stroke:none;stroke-width:0.70645553px;stroke-linecap:butt;stroke-linejoin:miter;stroke-opacity:1"
       d="m 133.17957,535.98066 c 5.25105,0.89686 17.1594,4.08562 19.96195,5.03281 4.12555,1.36748 18.31389,7.25731 18.31389,7.25731 l -21.46733,35.44697 -11.20651,-2.95104 -10.00175,-2.63582 3.30686,-26.64221 z"
       id="path4149"
       inkscape:connector-curvature="0"
       sodipodi:nodetypes="cccccccc" />
    <path
       style="fill:#ff0000;fill-opacity:1;fill-rule:evenodd;stroke:none;stroke-width:0.7628724px;stroke-linecap:butt;stroke-linejoin:miter;stroke-opacity:1"
       d="m 128.76243,578.27885 21.17805,5.51564 c 0,0 -3.04926,33.1697 -8.91707,48.53749 -8.14326,21.32719 -21.86138,40.28512 -35.6683,58.46563 -11.253821,14.81867 -33.013801,43.70504 -33.013801,43.70504 l -26.061806,5.93561 0,-22.0625 c 0,0 29.288366,-22.03575 39.159078,-37.05208 15.139399,-23.0316 16.573289,-52.75455 28.351639,-77.67294 4.19652,-8.87821 14.97221,-25.37189 14.97221,-25.37189 z"
       id="path4151"
       inkscape:connector-curvature="0"
       sodipodi:nodetypes="ccsscccssc" />
    <g
       transform="matrix(2.4277834,0,0,2.8786011,-186.97063,-1703.2785)"
       style="font-style:italic;font-variant:normal;font-weight:normal;font-stretch:normal;font-size:27.5px;line-height:125%;font-family:sans-serif;-inkscape-font-specification:'sans-serif Italic';letter-spacing:0px;word-spacing:0px;fill:#e6e6e6;fill-opacity:1;stroke:#d40000;stroke-width:1px;stroke-linecap:butt;stroke-linejoin:miter;stroke-opacity:1"
       id="flowRoot4154">
      <path
         d="m 135.28687,828.73238 q -0.37598,-0.20142 -0.85938,-0.30884 -0.4834,-0.10742 -1.03394,-0.10742 -1.97387,0 -3.45092,1.50391 -1.47705,1.49047 -1.96045,4.00146 l -1.51734,7.66724 -2.4707,0 2.94067,-15.03907 2.47071,0 -0.46997,2.33643 q 0.98022,-1.30249 2.33642,-2.00073 1.36963,-0.69824 2.91382,-0.69824 0.40283,0 0.79224,0.0537 0.3894,0.0403 0.77881,0.1477 l -0.46997,2.44385 z"
         style="fill:#e6e6e6;stroke:#d40000;stroke-opacity:1"
         id="path4390"
         inkscape:connector-curvature="0" />
      <path
         d="m 136.19995,835.52681 1.75903,-9.07715 2.48414,0 -1.75904,8.98316 q -0.13428,0.65796 -0.20141,1.12793 -0.0537,0.46997 -0.0537,0.77881 0,1.14135 0.69824,1.77246 0.69824,0.61767 1.97387,0.61767 1.98731,0 3.4375,-1.34277 1.4502,-1.34277 1.89331,-3.61206 l 1.65162,-8.3252 2.4707,0 -2.91382,15.03907 -2.4707,0 0.49682,-2.36328 q -1.04736,1.31591 -2.49755,2.04101 -1.43677,0.71167 -3.06153,0.71167 -1.97388,0 -3.07495,-1.07422 -1.10107,-1.08764 -1.10107,-3.02124 0,-0.40283 0.0671,-1.00708 0.0671,-0.60425 0.20141,-1.24878 z"
         style="fill:#e6e6e6;stroke:#d40000;stroke-opacity:1"
         id="path4392"
         inkscape:connector-curvature="0" />
      <path
         d="m 176.51001,832.41158 -1.75903,9.07715 -2.47071,0 1.73218,-8.99659 q 0.10742,-0.57739 0.16113,-0.99365 0.0537,-0.41626 0.0537,-0.71167 0,-1.20849 -0.67138,-1.87988 -0.67139,-0.67139 -1.87988,-0.67139 -1.79932,0 -3.20923,1.3562 -1.40992,1.34278 -1.82618,3.50464 l -1.65161,8.39234 -2.4707,0 1.75903,-8.99659 q 0.10743,-0.49682 0.16114,-0.91308 0.0537,-0.42969 0.0537,-0.76538 0,-1.22193 -0.67139,-1.89331 -0.67139,-0.68482 -1.85303,-0.68482 -1.82617,0 -3.23608,1.3562 -1.40991,1.34278 -1.82617,3.50464 l -1.65161,8.39234 -2.47071,0 2.94068,-15.03907 2.4707,0 -0.46997,2.33643 q 1.00708,-1.31592 2.34985,-2.00073 1.3562,-0.69824 2.90039,-0.69824 1.63819,0 2.68555,0.85937 1.06079,0.85938 1.27564,2.39014 1.12792,-1.58448 2.60498,-2.41699 1.49047,-0.83252 3.14209,-0.83252 1.93359,0 2.98095,1.1145 1.06079,1.1145 1.06079,3.15552 0,0.44311 -0.0537,0.98022 -0.0537,0.52368 -0.16113,1.07422 z"
         style="fill:#e6e6e6;stroke:#d40000;stroke-opacity:1"
         id="path4394"
         inkscape:connector-curvature="0" />
      <path
         d="m 192.26074,832.22359 q 0,-1.97388 -0.85937,-3.02124 -0.85938,-1.04736 -2.47071,-1.04736 -1.10107,0 -2.10815,0.56396 -0.99365,0.56397 -1.77246,1.63819 -0.76538,1.06079 -1.22193,2.56469 -0.45654,1.50391 -0.45654,2.98096 0,1.87988 0.85938,2.90039 0.85937,1.00708 2.44384,1.00708 1.16822,0 2.16187,-0.55054 1.00708,-0.55053 1.71875,-1.5979 0.76538,-1.10107 1.23535,-2.59155 0.46997,-1.49048 0.46997,-2.84668 z m -7.65381,-3.49121 q 0.99366,-1.30249 2.33643,-1.97388 1.3562,-0.67138 3.00781,-0.67138 2.30957,0 3.58521,1.51733 1.27563,1.50391 1.27563,4.22974 0,2.229 -0.79223,4.25659 -0.79224,2.01416 -2.28272,3.61206 -0.99365,1.06079 -2.24243,1.62475 -1.24878,0.55054 -2.63184,0.55054 -1.5979,0 -2.68554,-0.65796 -1.08765,-0.67138 -1.62476,-1.9873 l -1.54419,7.97607 -2.4707,0 4.04175,-20.75928 2.4707,0 -0.44312,2.28272 z"
         style="fill:#e6e6e6;stroke:#d40000;stroke-opacity:1"
         id="path4396"
         inkscape:connector-curvature="0" />
    </g>
    <g
       transform="matrix(2.3006998,0,0,2.7444153,241.97503,-1592.9542)"
       style="font-style:italic;font-variant:normal;font-weight:normal;font-stretch:normal;font-size:27.5px;line-height:125%;font-family:sans-serif;-inkscape-font-specification:'sans-serif Italic';letter-spacing:0px;word-spacing:0px;fill:#e6e6e6;fill-opacity:1;stroke:#d40000;stroke-width:1px;stroke-linecap:butt;stroke-linejoin:miter;stroke-opacity:1"
       id="flowRoot4162">
      <path
         d="m 124.86694,835.52681 1.75904,-9.07715 2.48413,0 -1.75904,8.98316 q -0.13427,0.65796 -0.20141,1.12793 -0.0537,0.46997 -0.0537,0.77881 0,1.14135 0.69824,1.77246 0.69824,0.61767 1.97388,0.61767 1.9873,0 3.4375,-1.34277 1.45019,-1.34277 1.89331,-3.61206 l 1.65161,-8.3252 2.4707,0 -2.91382,15.03907 -2.4707,0 0.49683,-2.36328 q -1.04737,1.31591 -2.49756,2.04101 -1.43677,0.71167 -3.06153,0.71167 -1.97387,0 -3.07495,-1.07422 -1.10107,-1.08764 -1.10107,-3.02124 0,-0.40283 0.0671,-1.00708 0.0671,-0.60425 0.20141,-1.24878 z"
         style="fill:#e6e6e6;stroke:#d40000;stroke-opacity:1"
         id="path4399"
         inkscape:connector-curvature="0" />
      <path
         d="m 165.177,832.41158 -1.75903,9.07715 -2.4707,0 1.73217,-8.99659 q 0.10743,-0.57739 0.16114,-0.99365 0.0537,-0.41626 0.0537,-0.71167 0,-1.20849 -0.67139,-1.87988 -0.67139,-0.67139 -1.87988,-0.67139 -1.79932,0 -3.20923,1.3562 -1.40991,1.34278 -1.82617,3.50464 l -1.65161,8.39234 -2.47071,0 1.75904,-8.99659 q 0.10742,-0.49682 0.16113,-0.91308 0.0537,-0.42969 0.0537,-0.76538 0,-1.22193 -0.67139,-1.89331 -0.67138,-0.68482 -1.85302,-0.68482 -1.82618,0 -3.23609,1.3562 -1.40991,1.34278 -1.82617,3.50464 l -1.65161,8.39234 -2.4707,0 2.94067,-15.03907 2.4707,0 -0.46997,2.33643 q 1.00708,-1.31592 2.34986,-2.00073 1.3562,-0.69824 2.90039,-0.69824 1.63818,0 2.68554,0.85937 1.06079,0.85938 1.27564,2.39014 1.12793,-1.58448 2.60498,-2.41699 1.49048,-0.83252 3.14209,-0.83252 1.93359,0 2.98095,1.1145 1.0608,1.1145 1.0608,3.15552 0,0.44311 -0.0537,0.98022 -0.0537,0.52368 -0.16113,1.07422 z"
         style="fill:#e6e6e6;stroke:#d40000;stroke-opacity:1"
         id="path4401"
         inkscape:connector-curvature="0" />
      <path
         d="m 180.92773,832.22359 q 0,-1.97388 -0.85937,-3.02124 -0.85938,-1.04736 -2.4707,-1.04736 -1.10108,0 -2.10816,0.56396 -0.99365,0.56397 -1.77246,1.63819 -0.76538,1.06079 -1.22192,2.56469 -0.45655,1.50391 -0.45655,2.98096 0,1.87988 0.85938,2.90039 0.85937,1.00708 2.44385,1.00708 1.16821,0 2.16186,-0.55054 1.00708,-0.55053 1.71875,-1.5979 0.76538,-1.10107 1.23535,-2.59155 0.46997,-1.49048 0.46997,-2.84668 z m -7.6538,-3.49121 q 0.99365,-1.30249 2.33642,-1.97388 1.3562,-0.67138 3.00781,-0.67138 2.30957,0 3.58521,1.51733 1.27563,1.50391 1.27563,4.22974 0,2.229 -0.79223,4.25659 -0.79224,2.01416 -2.28272,3.61206 -0.99365,1.06079 -2.24243,1.62475 -1.24878,0.55054 -2.63183,0.55054 -1.59791,0 -2.68555,-0.65796 -1.08765,-0.67138 -1.62476,-1.9873 l -1.54419,7.97607 -2.4707,0 4.04175,-20.75928 2.4707,0 -0.44311,2.28272 z"
         style="fill:#e6e6e6;stroke:#d40000;stroke-opacity:1"
         id="path4403"
         inkscape:connector-curvature="0" />
    </g>
    <flowRoot
       xml:space="preserve"
       id="flowRoot4178"
       style="fill:black;stroke:none;stroke-opacity:1;stroke-width:1px;stroke-linejoin:miter;stroke-linecap:butt;fill-opacity:1;font-family:sans-serif;font-style:normal;font-weight:normal;font-size:17.5px;line-height:125%;letter-spacing:0px;word-spacing:0px;-inkscape-font-specification:sans-serif;font-stretch:normal;font-variant:normal;"><flowRegion
         id="flowRegion4180"><rect
           id="rect4182"
           width="41.440804"
           height="99.716927"
           x="703.19861"
           y="676.80493"
           style="-inkscape-font-specification:sans-serif;font-family:sans-serif;font-weight:normal;font-style:normal;font-stretch:normal;font-variant:normal;" /></flowRegion><flowPara
         id="flowPara4184" /></flowRoot>    <flowRoot
       xml:space="preserve"
       id="flowRoot4186"
       style="font-style:normal;font-variant:normal;font-weight:normal;font-stretch:normal;font-size:17.5px;line-height:125%;font-family:Georgia;-inkscape-font-specification:Georgia;letter-spacing:0px;word-spacing:0px;fill:#000000;fill-opacity:1;stroke:none;stroke-width:1px;stroke-linecap:butt;stroke-linejoin:miter;stroke-opacity:1"><flowRegion
         id="flowRegion4188"><rect
           id="rect4190"
           width="38.85075"
           height="154.10799"
           x="701.90356"
           y="674.2149" /></flowRegion><flowPara
         id="flowPara4192">vnvbnm?</flowPara></flowRoot>    <flowRoot
       xml:space="preserve"
       id="flowRoot4194"
       style="fill:black;stroke:none;stroke-opacity:1;stroke-width:1px;stroke-linejoin:miter;stroke-linecap:butt;fill-opacity:1;font-family:Georgia;font-style:normal;font-weight:normal;font-size:27.5px;line-height:125%;letter-spacing:0px;word-spacing:0px;-inkscape-font-specification:Georgia;font-stretch:normal;font-variant:normal;"><flowRegion
         id="flowRegion4196"><rect
           id="rect4198"
           width="41.440804"
           height="141.15773"
           x="637.15234"
           y="325.85315"
           style="font-size:27.5px;" /></flowRegion><flowPara
         id="flowPara4200" /></flowRoot>    <flowRoot
       xml:space="preserve"
       id="flowRoot4202"
       style="fill:black;stroke:none;stroke-opacity:1;stroke-width:1px;stroke-linejoin:miter;stroke-linecap:butt;fill-opacity:1;font-family:Georgia;font-style:normal;font-weight:normal;font-size:17.5px;line-height:125%;letter-spacing:0px;word-spacing:0px;-inkscape-font-specification:Georgia;font-stretch:normal;font-variant:normal"><flowRegion
         id="flowRegion4204"><rect
           id="rect4206"
           width="293.9707"
           height="40.145779"
           x="37.555725"
           y="268.87204" /></flowRegion><flowPara
         id="flowPara4208" /></flowRoot>    <flowRoot
       xml:space="preserve"
       id="flowRoot4210"
       style="font-style:normal;font-variant:normal;font-weight:normal;font-stretch:normal;font-size:70px;line-height:125%;font-family:'Andale Mono';-inkscape-font-specification:'Andale Mono';letter-spacing:0px;word-spacing:0px;fill:#ececec;fill-opacity:1;stroke:#d40000;stroke-width:1px;stroke-linecap:butt;stroke-linejoin:miter;stroke-opacity:1"
       transform="matrix(1.9561167,0,0,1.9561167,305.84343,26.889819)"><flowRegion
         id="flowRegion4212"><rect
           id="rect4214"
           width="134.6826"
           height="81.586578"
           x="180.00848"
           y="289.59244"
           style="font-style:normal;font-variant:normal;font-weight:normal;font-stretch:normal;font-size:70px;font-family:'Andale Mono';-inkscape-font-specification:'Andale Mono';fill:#ececec;fill-opacity:1;stroke:#d40000;stroke-opacity:1" /></flowRegion><flowPara
         id="flowPara4216">?</flowPara></flowRoot>    <path
       style="fill:#4c2c15;fill-rule:evenodd;stroke:#000000;stroke-width:1px;stroke-linecap:butt;stroke-linejoin:miter;stroke-opacity:1;fill-opacity:1"
       d="m 304.35045,716.83572 30.22878,1.43972 -7.25432,13.58494 -3.50085,13.26386 -37.25267,0 -20.7204,1.29502 -23.31045,-3.88508 0,-2.59005 18.13035,-1.29502 16.83532,-9.06518 z"
       id="path4219"
       inkscape:connector-curvature="0"
       sodipodi:nodetypes="ccccccccccc" />
    <path
       style="fill:#4c2c15;fill-rule:evenodd;stroke:none;stroke-opacity:1;fill-opacity:1"
       d="m 480.82515,720.51876 10.6476,12.92923 5.09474,9.68319 12.22643,0.3321 2.78583,0.0757 10.6862,0.29026 15.5403,0 24.60548,-2.59005 -15.5403,-9.06518 -23.31045,-11.65522 -5.1801,-7.77015 -12.95025,6.47512 z"
       id="path4221"
       inkscape:connector-curvature="0"
       sodipodi:nodetypes="ccccccccccccc" />
    <path
       transform="matrix(0.92695695,0.37516772,-0.30325799,0.95290849,0,0)"
       style="opacity:1;fill:#deab89;fill-opacity:0.64393125;stroke:none;stroke-width:3;stroke-miterlimit:4;stroke-dasharray:none;stroke-opacity:1"
       d="m 518.0582,302.48401 c 1.55629,-2.20434 6.14095,-14.29872 11.13454,-12.61242 6.30736,2.12995 7.53647,12.13468 7.516,19.17833 -0.0891,30.63718 -10.84714,89.21614 -10.84714,89.21614 l -7.3559,-13.77971 c 0,0 -3.62407,-10.11286 -6.27858,-23.323 -1.66316,-8.27671 -0.80208,-16.94996 -0.72436,-23.49088 0.14311,-12.04509 0.0766,-26.01179 6.55544,-35.18846 z"
       id="rect4223"
       inkscape:connector-curvature="0"
       sodipodi:nodetypes="sssccsss" />
    <path
       transform="matrix(0.80875703,0.5881429,-0.33933224,0.94066659,0,0)"
       style="opacity:1;fill:#373e48;fill-opacity:1;stroke:none;stroke-width:3;stroke-miterlimit:4;stroke-dasharray:none;stroke-opacity:1"
       d="m 551.50112,242.7608 11.39803,18.76932 2.36183,141.18606 -8.94131,5.20669 z"
       id="rect4225"
       inkscape:connector-curvature="0"
       sodipodi:nodetypes="ccccc" />
    <path
       transform="matrix(0.99982553,0.01867887,0.39889376,0.91699715,0,0)"
       style="opacity:1;fill:#373e48;fill-opacity:1;stroke:none;stroke-width:3;stroke-miterlimit:4;stroke-dasharray:none;stroke-opacity:1"
       inkscape:transform-center-x="1.453539"
       inkscape:transform-center-y="52.327403"
       d="m 172.27241,666.57714 11.77707,-9.6983 6.55807,-6.60634 3.94638,-0.41883 c 0,0 1.3866,1.3565 2.63209,1.86882 1.21266,0.49881 -2.20619,6.78221 -4.60495,13.0668 -4.31923,11.3161 -7.37577,21.14486 -7.37577,21.14486 l -1.9372,91.20456 -12.69092,-0.47024 c 0.3928,-4.32765 -1.34707,-9.10741 -1.90202,-15.46062 l 6.88017,-15.12037 -5.38818,-57.09258 z"
       id="rect4233"
       inkscape:connector-curvature="0"
       sodipodi:nodetypes="ccccssccccccc" />
    <g
       transform="matrix(5.1783401,0,0,2.8902878,-391.50886,-1787.4507)"
       style="font-style:italic;font-variant:normal;font-weight:normal;font-stretch:normal;font-size:27.5px;line-height:125%;font-family:sans-serif;-inkscape-font-specification:'sans-serif Italic';letter-spacing:0px;word-spacing:0px;fill:#ececec;fill-opacity:1;stroke:#aa0000;stroke-width:1px;stroke-linecap:butt;stroke-linejoin:miter;stroke-opacity:1"
       id="flowRoot4170">
      <path
         d="m 130.00977,841.87813 q -2.64527,0 -4.18946,-1.62475 -1.53076,-1.63819 -1.53076,-4.45801 0,-1.63819 0.52368,-3.33008 0.53711,-1.70532 1.38306,-2.86011 1.32934,-1.79931 2.96753,-2.65869 1.63818,-0.85937 3.70605,-0.85937 2.5647,0 4.13575,1.5979 1.58447,1.5979 1.58447,4.17602 0,1.78589 -0.52368,3.55835 -0.52369,1.77246 -1.36963,2.94067 -1.31592,1.79932 -2.9541,2.6587 -1.63819,0.85937 -3.73291,0.85937 z m -3.15552,-6.16333 q 0,2.04102 0.84595,3.06152 0.85937,1.00708 2.59155,1.00708 2.48413,0 4.10888,-2.16186 1.63819,-2.17529 1.63819,-5.50537 0,-1.94702 -0.8728,-2.94068 -0.87281,-0.99365 -2.5647,-0.99365 -1.39649,0 -2.48413,0.65796 -1.08765,0.64453 -1.94702,1.97388 -0.63111,0.99365 -0.98023,2.26929 -0.33569,1.27563 -0.33569,2.63183 z"
         style="fill:#ececec;fill-opacity:1;stroke:#aa0000;stroke-opacity:1"
         id="path4385"
         inkscape:connector-curvature="0" />
      <path
         d="m 152.09839,828.73238 q -0.37598,-0.20142 -0.85938,-0.30884 -0.48339,-0.10742 -1.03393,-0.10742 -1.97388,0 -3.45093,1.50391 -1.47705,1.49047 -1.96045,4.00146 l -1.51733,7.66724 -2.47071,0 2.94068,-15.03907 2.4707,0 -0.46997,2.33643 q 0.98022,-1.30249 2.33643,-2.00073 1.36962,-0.69824 2.91381,-0.69824 0.40284,0 0.79224,0.0537 0.38941,0.0403 0.77881,0.1477 l -0.46997,2.44385 z"
         style="fill:#ececec;fill-opacity:1;stroke:#aa0000;stroke-opacity:1"
         id="path4387"
         inkscape:connector-curvature="0" />
    </g>
    <path
       transform="matrix(0.9646378,0.26357906,-0.27821003,0.96052027,0,0)"
       style="opacity:1;fill:#deab89;fill-opacity:0.64393125;stroke:none;stroke-width:3;stroke-miterlimit:4;stroke-dasharray:none;stroke-opacity:1"
       inkscape:transform-center-x="0.65864446"
       inkscape:transform-center-y="10.153434"
       d="m 593.75212,367.61232 c 0,0 5.70614,-1.46109 7.27652,1.46881 8.39856,15.66941 7.6709,85.77831 5.13152,85.2227 -1.4295,-0.31277 -4.00471,-4.01635 -5.6691,-7.43386 -1.29226,-2.6534 -1.89296,-5.24333 -1.89296,-5.24333 -0.52463,-1.6641 -0.63783,-3.77589 -0.88767,-5.49112 -0.40316,-2.76792 -0.7922,-5.16901 -1.07087,-7.97436 -0.57743,-5.81289 -0.63666,-11.91487 -0.85482,-17.78863 -0.47941,-12.90769 -0.66997,-38.54781 -0.66997,-38.54781 z"
       id="rect4235"
       inkscape:connector-curvature="0"
       sodipodi:nodetypes="cssssssscc" />
    <path
       sodipodi:nodetypes="caacccccccccccccsscccccccccccc"
       inkscape:connector-curvature="0"
       id="path4237"
       d="m 30.146169,501.74696 c 0,0 5.216393,-14.0813 10.206477,-19.43193 4.98672,-5.34703 12.051391,-8.40203 18.661273,-11.52733 4.934758,-2.33327 15.492122,-5.3064 15.492122,-5.3064 l 15.896659,-0.60449 26.98334,0.90673 29.20222,6.50802 19.96585,8.9161 22.85339,9.90167 18.42329,8.15394 17.84957,7.66114 20.70292,8.9161 17.65202,8.79451 21.31845,3.95539 19.70752,-3.52833 30.8817,-9.34093 c 0,0 -15.4644,14.35159 -22.40022,17.79395 -4.48413,2.22554 -11.60304,3.53509 -18.42057,5.54115 -6.22388,1.83137 -30.67653,-0.54441 -30.67653,-0.54441 l -17.58362,-4.8851 -23.39291,-8.19991 -21.33742,-11.04491 -30.58142,-12.19803 -20.12919,-7.96339 -22.55324,-4.68145 -29.399775,-2.46394 -21.345027,-1.23196 -24.164194,1.47835 -15.303983,6.40621 z"
       style="fill:#ffcc00;fill-opacity:1;fill-rule:evenodd;stroke:none;stroke-width:1px;stroke-linecap:butt;stroke-linejoin:miter;stroke-opacity:1" />
    <path
       style="fill:#e6bfa5;fill-opacity:1;fill-rule:evenodd;stroke:none;stroke-width:1px;stroke-linecap:butt;stroke-linejoin:miter;stroke-opacity:1"
       d="m 24.221235,519.7675 c 0,0 3.631151,-19.87988 8.506947,-25.79029 4.56692,-5.53598 11.51553,-4.54377 17.367311,-6.55483 4.83778,-1.66258 14.65584,-4.55204 14.65584,-4.55204 l 16.814905,0.17797 24.586932,1.96604 29.04937,4.41944 19.51747,5.8608 24.86737,9.86875 18.23603,7.30888 19.74403,7.25055 16.33738,10.16038 17.01027,4.54265 c 0,0 14.887,3.70012 22.49873,4.29929 5.4989,0.43285 16.5394,-0.52457 16.5394,-0.52457 l 24.90317,-3.74115 c 0,0 -9.43505,7.41831 -15.93691,9.2822 -4.20362,1.20506 -14.82538,2.61651 -21.29324,3.51225 -5.90468,0.81767 -25.78063,-2.77498 -25.78063,-2.77498 l -17.7843,-3.45719 -21.69292,-11.19818 -26.539,-10.88922 -22.97819,-9.20858 c -0.009,-4.1366 -18.03007,-6.5317 -24.53475,-9.04445 l -20.5888,-2.62571 -28.595567,-4.38308 -30.206402,0.24916 -11.271844,2.10776 -15.094457,12.49563 z"
       id="path4217"
       inkscape:connector-curvature="0"
       sodipodi:nodetypes="caaccccccccccaccsscccccccccccc" />
    <path
       style="opacity:0.25500039;fill:#666666;fill-rule:evenodd;stroke:none;stroke-width:1px;stroke-linecap:butt;stroke-linejoin:miter;stroke-opacity:1"
       d="m 262.71365,497.45792 41.45554,3.48246 41.84152,-12.93569 -9.45322,28.98969 -49.70258,39.76207 -28.40148,7.10037 -22.72118,5.68029 30.13664,-21.85303 5.73933,-19.50139 z"
       id="path4229"
       inkscape:connector-curvature="0"
       sodipodi:nodetypes="cccccccccc" />
    <path
       style="opacity:0.993;fill:#ffcc00;fill-opacity:1;stroke:none;stroke-opacity:1"
       id="path4240"
       d="m 279.85737,518.8122 c 2.77848,0.087 5.55887,0.076 8.33828,0.0561 2.45466,-0.01 4.90965,-10e-4 7.36418,-0.031 1.70227,0.19559 3.24624,-0.46987 4.8997,-0.73302 1.53408,-0.10623 2.97522,-0.63395 4.40804,-1.19332 1.4339,-0.72581 3.00084,-0.90202 4.57556,-1.07182 1.65473,0.0179 3.21922,0.0154 4.80607,-0.46609 1.48078,-0.33849 3.01001,-0.46514 4.5246,-0.57168 1.01242,0.16379 1.46045,-0.65032 2.26103,-1.0488 0.55262,-0.27507 0.88184,-0.33397 1.479,-0.49924 1.70767,-0.41341 3.33883,-1.03546 5.09204,-1.28179 1.50216,-0.16861 3.01113,-0.22324 4.5214,-0.19603 1.61277,0.0318 3.13295,0.1368 4.656,-0.43461 4.57477,-1.15389 14.96537,-8.09888 -10.03084,6.08273 -2.49408,-6.46583 11.36057,-11.81001 13.85465,-5.34418 l 0,0 c -6.12492,3.4936 -9.70653,6.89654 -15.63498,8.29658 -1.60031,0.22354 -3.22369,0.0735 -4.83484,0.1317 -1.4589,0.0585 -2.9267,0.10054 -4.36118,0.39986 -1.67571,0.40128 -3.31527,0.94553 -4.95033,1.48351 -1.33032,0.62261 -2.48591,1.37506 -4.0301,1.25574 -1.47058,0.126 -2.93022,0.34451 -4.36055,0.71502 -1.62698,0.2447 -3.27938,0.1142 -4.90657,0.37275 -1.50908,0.23477 -2.9248,0.7243 -4.34415,1.27967 -1.50331,0.46911 -2.98572,0.87283 -4.55876,1.02856 -1.66505,0.36254 -3.29879,0.63662 -5.01586,0.47669 -2.42608,-0.0302 -4.85266,-0.021 -7.27888,-0.031 -2.8309,-0.0207 -5.66261,-0.0279 -8.49266,0.0561 -4.07534,-5.60923 7.94381,-14.34166 12.01915,-8.73243 z"
       inkscape:connector-curvature="0" />
    <path
       style="opacity:0.99299999;fill:#d8b21a;fill-opacity:1;stroke:none;stroke-opacity:1"
       id="path4242"
       d="m 274.55812,540.89329 c 2.02228,0.0625 4.04624,0.0536 6.06928,0.0498 1.73244,-0.0292 3.46513,-0.0241 5.19771,-0.0218 1.60938,0.005 3.21877,0.005 4.82802,-0.019 1.32959,-0.0141 2.65874,0.003 3.98821,0.0178 1.6256,0.016 3.2506,-0.0133 4.87615,-0.004 1.50225,-0.0115 3.00395,-0.007 4.50624,0.002 0.91367,0.18842 1.39171,-0.19494 2.11473,-0.64795 0.7055,-0.44203 1.45087,-0.6036 2.14888,-1.08089 4.47948,-2.18785 10.4457,-6.42728 -8.93659,5.84495 -2.2803,-6.46716 10.31148,-11.84443 12.59178,-5.37727 l 0,0 c -4.92247,3.14143 -9.20419,6.27105 -14.16404,8.78715 -1.53516,0.67019 -2.92656,1.42509 -4.63863,1.17646 -1.50383,0.008 -3.00707,0.0134 -4.51084,0.002 -1.62261,0.01 -3.24463,-0.0193 -4.8673,-0.004 -1.34428,0.0141 -2.68825,0.0318 -4.03264,0.0178 -1.59339,-0.025 -3.18693,-0.0239 -4.78045,-0.019 -1.7144,0.002 -3.42893,0.008 -5.14319,-0.0218 -2.06459,-0.004 -4.12998,-0.0112 -6.19388,0.0498 -3.71166,-5.62217 7.2349,-14.37474 10.94656,-8.75257 z"
       inkscape:connector-curvature="0" />
    <path
       inkscape:connector-curvature="0"
       id="path4231"
       d="m 38.276776,484.01842 17.457361,-17.3057 11.427613,-5.15523 15.191658,-2.77527 -25.174955,41.2535 -9.625506,33.09707 -16.322195,9.09779 -17.722199,20.10921 11.716771,-54.20185 z"
       style="opacity:0.25500039;fill:#666666;fill-rule:evenodd;stroke:none;stroke-width:1px;stroke-linecap:butt;stroke-linejoin:miter;stroke-opacity:1"
       sodipodi:nodetypes="cccccccccc" />
    <path
       style="fill:#d8b21a;fill-opacity:1;fill-rule:evenodd;stroke:none;stroke-width:1px;stroke-linecap:butt;stroke-linejoin:miter;stroke-opacity:1"
       d="m 35.773567,490.35945 -9.301127,16.09811 -3.577357,13.9517 14.309427,-16.45585 9.301127,-6.43924 9.658863,-2.14641 3.219621,0 9.658864,-13.59396 -19.317727,4.29283 z"
       id="path4207"
       inkscape:connector-curvature="0"
       sodipodi:nodetypes="cccccccccc" />
    <path
       style="opacity:0.99299999;fill:#535d6c;fill-opacity:1;stroke:none;stroke-opacity:1"
       inkscape:transform-center-x="-1.9934344"
       inkscape:transform-center-y="-11.200106"
       d="m 137.10579,536.62893 25.58621,25.73521 -2.94094,4.83332 -27.22006,-24.69684 0.57289,-6.70761 z"
       id="rect4218"
       inkscape:connector-curvature="0"
       sodipodi:nodetypes="cccccc" />
    <path
       style="opacity:0.99299999;fill:#535d6c;fill-opacity:1;stroke:none;stroke-opacity:1"
       inkscape:transform-center-x="-1.9934344"
       inkscape:transform-center-y="-11.200106"
       d="m 131.70833,553.9314 22.14078,22.52119 -2.41359,4.4739 -20.0976,-18.93502 z"
       id="rect4220"
       inkscape:connector-curvature="0"
       sodipodi:nodetypes="ccccc" />
    <path
       style="opacity:0.99299999;fill:#535d6c;fill-opacity:1;stroke:none;stroke-opacity:1"
       inkscape:transform-center-x="-0.50176653"
       inkscape:transform-center-y="-11.365045"
       d="m 149.85388,584.24979 -11.20518,0.30561 -11.53535,2.94469 -5.81331,2.79722 -3.70858,6.48727 31.3024,-4.88356 z"
       id="use4224"
       inkscape:connector-curvature="0"
       sodipodi:nodetypes="ccccccc" />
    <path
       style="opacity:0.99299999;fill:#535d6c;fill-opacity:1;stroke:none;stroke-opacity:1"
       inkscape:transform-center-x="-1.5444165"
       inkscape:transform-center-y="-10.848993"
       d="m 148.03478,598.96535 -34.29832,4.918 -3.17436,7.96874 36.30245,-5.76201 z"
       id="use4226"
       inkscape:connector-curvature="0"
       sodipodi:nodetypes="ccccc" />
    <path
       style="opacity:0.99299999;fill:#535d6c;fill-opacity:1;stroke:none;stroke-opacity:1"
       inkscape:transform-center-x="-0.50176653"
       inkscape:transform-center-y="-11.365045"
       d="m 145.96969,613.06184 -38.27607,6.14808 -2.28717,7.35337 39.15288,-6.14808 z"
       id="use4228"
       inkscape:connector-curvature="0"
       sodipodi:nodetypes="ccccc" />
    <path
       transform="matrix(-0.99902851,0.04406847,0.12467018,0.99219824,0,0)"
       style="opacity:0.99299999;fill:#535d6c;fill-opacity:1;stroke:none;stroke-opacity:1"
       inkscape:transform-center-x="-2.6225918"
       inkscape:transform-center-y="-11.069716"
       d="m -63.378058,636.03267 39.593235,3.36561 2.742442,7.09717 -38.634009,-2.78334 z"
       id="use4230"
       inkscape:connector-curvature="0"
       sodipodi:nodetypes="ccccc" />
    <path
       transform="matrix(-0.99998786,-0.00492702,0.07591252,0.99711448,0,0)"
       style="opacity:0.99299999;fill:#535d6c;fill-opacity:1;stroke:none;stroke-opacity:1"
       inkscape:transform-center-x="-0.50176653"
       inkscape:transform-center-y="-11.365045"
       d="m -87.386329,644.50123 36.717783,4.09105 2.535805,6.57676 -34.973585,-3.283 z"
       id="use4232"
       inkscape:connector-curvature="0"
       sodipodi:nodetypes="ccccc" />
    <path
       transform="matrix(-0.99928676,-0.0377621,0.0431282,0.99906955,0,0)"
       style="opacity:0.99299999;fill:#535d6c;fill-opacity:1;stroke:none;stroke-opacity:1"
       inkscape:transform-center-x="-7.2718958"
       inkscape:transform-center-y="-8.7484768"
       d="m -100.18907,654.62163 33.030199,3.88852 2.90669,6.58629 -31.316584,-3.20317 z"
       id="use4234"
       inkscape:connector-curvature="0"
       sodipodi:nodetypes="ccccc" />
    <path
       style="opacity:0.99299999;fill:#535d6c;fill-opacity:1;stroke:none;stroke-opacity:1"
       inkscape:transform-center-x="-7.2718958"
       inkscape:transform-center-y="-8.7484768"
       d="m 119.52883,671.72397 -29.650404,1.4862 -3.949115,6.64754 28.056139,-0.42334 z"
       id="rect4259"
       inkscape:connector-curvature="0"
       sodipodi:nodetypes="ccccc" />
    <path
       style="opacity:0.99299999;fill:#535d6c;fill-opacity:1;stroke:none;stroke-opacity:1"
       inkscape:transform-center-x="-7.2718958"
       inkscape:transform-center-y="-8.7484768"
       d="m 98.105255,699.93969 -30.181828,0.24621 -6.606224,6.11614 32.026608,0.44976 z"
       id="rect4261"
       inkscape:connector-curvature="0"
       sodipodi:nodetypes="ccccc" />
    <path
       transform="matrix(-0.99928676,-0.0377621,0.0431282,0.99906955,0,0)"
       style="opacity:0.99299999;fill:#535d6c;fill-opacity:1;stroke:none;stroke-opacity:1"
       inkscape:transform-center-x="-7.2718958"
       inkscape:transform-center-y="-8.7484768"
       d="m -47.542962,724.05277 32.70709,0.38842 0.04336,8.01298 -27.728389,-1.20323 z"
       id="rect4263"
       inkscape:connector-curvature="0"
       sodipodi:nodetypes="ccccc" />
    <path
       sodipodi:nodetypes="ccccc"
       inkscape:connector-curvature="0"
       id="path4285"
       d="m 109.7861,685.71807 -29.650405,1.4862 -5.189099,6.29326 29.296124,-0.0691 z"
       inkscape:transform-center-y="-8.7484768"
       inkscape:transform-center-x="-7.2718958"
       style="opacity:0.99299999;fill:#535d6c;fill-opacity:1;stroke:none;stroke-opacity:1" />
    <path
       sodipodi:nodetypes="ccccc"
       inkscape:connector-curvature="0"
       id="path4288"
       d="m 89.08673,712.2149 -33.689032,-1.25687 -7.608282,6.36665 36.786384,1.45182 z"
       inkscape:transform-center-y="-8.7484768"
       inkscape:transform-center-x="-7.2718958"
       style="opacity:0.99299999;fill:#535d6c;fill-opacity:1;stroke:none;stroke-opacity:1" />
    <path
       transform="matrix(0.97118323,0.23833408,-0.68877378,0.72497633,0,0)"
       style="opacity:0.99299999;fill:#000000;fill-opacity:1;stroke:none;stroke-opacity:1"
       inkscape:transform-center-x="-1.5314701"
       inkscape:transform-center-y="2.6800727"
       d="m 566.14825,611.20779 22.09521,0.50687 0.15246,0.19525 -22.14414,-0.37801 z"
       id="rect4381"
       inkscape:connector-curvature="0"
       sodipodi:nodetypes="ccccc" />
  </g>
</svg>
